<?xml version="1.0" standalone="no"?>
<!DOCTYPE svg PUBLIC "-//W3C//DTD SVG 20010904//EN"
 "http://www.w3.org/TR/2001/REC-SVG-20010904/DTD/svg10.dtd">
<svg version="1.0" xmlns="http://www.w3.org/2000/svg"
 width="280.000000pt" height="280.000000pt" viewBox="0 0 280.000000 280.000000"
 preserveAspectRatio="xMidYMid meet">

<g transform="translate(0.000000,280.000000) scale(0.100000,-0.100000)"
fill="#000000" stroke="none">
<path d="M0 1400 l0 -1400 1400 0 1400 0 0 1400 0 1400 -1400 0 -1400 0 0
-1400z m1120 425 l0 -145 -140 0 -140 0 0 145 0 145 140 0 140 0 0 -145z m428
3 l-3 -143 -140 0 -140 0 -3 143 -3 142 146 0 146 0 -3 -142z m422 -3 l0 -145
-140 0 -140 0 0 145 0 145 140 0 140 0 0 -145z m-850 -425 l0 -140 -140 0
-140 0 0 140 0 140 140 0 140 0 0 -140z m430 0 l0 -140 -145 0 -145 0 0 140 0
140 145 0 145 0 0 -140z m420 0 l0 -140 -140 0 -140 0 0 140 0 140 140 0 140
0 0 -140z m-850 -425 l0 -145 -140 0 -140 0 0 145 0 145 140 0 140 0 0 -145z
m428 -2 l3 -143 -146 0 -145 0 0 138 c0 76 3 142 7 146 4 3 68 5 142 4 l136
-3 3 -142z m422 2 l0 -145 -140 0 -140 0 0 145 0 145 140 0 140 0 0 -145z"/>
</g>
</svg>
